<svg xmlns="http://www.w3.org/2000/svg" xmlns:xlink="http://www.w3.org/1999/xlink" viewBox="0 0 159.288 158.782" xmlns:v="https://vecta.io/nano"><use xlink:href="#B"/><use xlink:href="#B" y="24.057"/><use xlink:href="#B" y="48.113"/><path d="M43.484 43.284c2.642-1.845 4.378-4.903 4.378-8.363 0-5.624-4.576-10.2-10.2-10.2s-10.2 4.576-10.2 10.2c0 3.46 1.736 6.518 4.378 8.363-5.499 2.29-9.377 7.716-9.377 14.035a1.5 1.5 0 1 0 3 0c0-6.727 5.472-12.199 12.199-12.199S49.86 50.593 49.86 57.319a1.5 1.5 0 1 0 3 0c0-6.319-3.878-11.746-9.377-14.035zm-5.822-1.164a7.21 7.21 0 0 1-7.2-7.199 7.21 7.21 0 0 1 7.2-7.2 7.21 7.21 0 0 1 7.2 7.2 7.21 7.21 0 0 1-7.2 7.199zm119.415-6.09c-4.086-4.087-12.19-2.383-18.448 3.874L122.674 55.86V1.5a1.5 1.5 0 0 0-1.5-1.5H1.5A1.5 1.5 0 0 0 0 1.5v155.782a1.5 1.5 0 0 0 1.5 1.5h119.674a1.5 1.5 0 0 0 1.5-1.5V85.007l29.484-29.484 1.867 1.811-28.84 28.744a1.5 1.5 0 0 0-.003 2.121c.293.294.678.441 1.063.441a1.49 1.49 0 0 0 1.059-.437l29.92-29.821a1.5 1.5 0 0 0-.015-2.14l-2.962-2.873c2.336-2.642 3.977-5.64 4.674-8.571.856-3.609.201-6.723-1.844-8.767zm-37.403 22.83L94.39 84.144H16.469a1.5 1.5 0 1 0 0 3H91.39l-17.722 17.723H16.469a1.5 1.5 0 1 0 0 3h54.199l-10.147 10.147c-.026.026-.045.056-.068.084-.034.04-.069.078-.099.121s-.055.092-.081.139c-.018.032-.04.061-.056.095l-3.255 7.137H16.469a1.5 1.5 0 0 0 0 3h39.123l-5.821 12.761a1.5 1.5 0 0 0 1.365 2.123c.21 0 .422-.044.622-.136l22.897-10.445a1.47 1.47 0 0 0 .411-.286c.008-.008.019-.01.027-.018l3.998-3.998h27.77a1.5 1.5 0 1 0 0-3h-24.77l17.723-17.723h7.047a1.5 1.5 0 1 0 0-3h-4.047l16.859-16.859v67.775H3V3h116.674v55.86zm-46.773 71.535l-1.457.664-17.277 7.881 4.721-10.352 1.368-3 1.791-3.926.664-1.457 5.383 5.383 3 3 1.806 1.806zm83.1-86.289c-.573 2.414-1.944 4.91-3.899 7.152l-10.251-10.252c4.733-4.11 10.507-5.448 13.104-2.854 1.281 1.281 1.652 3.395 1.046 5.954z"/><use xlink:href="#C"/><use xlink:href="#C" x="10.298"/><use xlink:href="#C" x="20.595"/><path d="M16.469 65.741h42.386a1.5 1.5 0 0 0 1.5-1.5V16.128a1.5 1.5 0 0 0-1.5-1.5H16.469a1.5 1.5 0 0 0-1.5 1.5v48.113a1.5 1.5 0 0 0 1.5 1.5zm1.5-48.113h39.386v45.113H17.969V17.628z"/><defs ><path id="B" d="M72.116 17.628h35.268a1.5 1.5 0 1 0 0-3H72.116a1.5 1.5 0 1 0 0 3z"/><path id="C" d="M16.961 142.623h.831a1.5 1.5 0 0 0 1.5-1.5v-.831a1.5 1.5 0 0 0-1.5-1.5h-.831a1.5 1.5 0 0 0-1.5 1.5v.831a1.5 1.5 0 0 0 1.5 1.5z"/></defs></svg>